<svg width="24" height="24" viewBox="0 0 24 24" fill="none" xmlns="http://www.w3.org/2000/svg">
<path d="M21.43 3.29001H2.57C2.2552 3.29001 2 3.54521 2 3.86001V16.42C2 16.7348 2.2552 16.99 2.57 16.99H21.43C21.7448 16.99 22 16.7348 22 16.42V3.86001C22 3.54521 21.7448 3.29001 21.43 3.29001Z" fill="#FFEABB"/>
<path d="M4.94 12.86H9.53C9.82969 12.86 10.1171 12.979 10.329 13.191C10.5409 13.4029 10.66 13.6903 10.66 13.99C10.66 14.2897 10.5409 14.5771 10.329 14.789C10.1171 15.0009 9.82969 15.12 9.53 15.12H4.94C4.6403 15.12 4.35288 15.0009 4.14097 14.789C3.92905 14.5771 3.81 14.2897 3.81 13.99C3.81 13.6903 3.92905 13.4029 4.14097 13.191C4.35288 12.979 4.6403 12.86 4.94 12.86" fill="#F94060"/>
<path d="M20.05 17H21.43C21.5812 17 21.7261 16.94 21.833 16.8331C21.9399 16.7262 22 16.5812 22 16.43V3.86001C21.9974 3.70964 21.9365 3.56615 21.8302 3.4598C21.7239 3.35346 21.5804 3.29258 21.43 3.29001H20.05V17Z" fill="#F7BF75"/>
<path d="M13.57 15.49L11.57 18.88C11.5383 18.9328 11.5215 18.9933 11.5215 19.055C11.5215 19.1166 11.5383 19.1771 11.57 19.23C11.6022 19.2838 11.6475 19.3286 11.7018 19.36C11.756 19.3915 11.8173 19.4087 11.88 19.41H12.75C12.879 19.4139 13.0049 19.4498 13.1166 19.5144C13.2283 19.5789 13.3223 19.6702 13.39 19.78L13.83 20.53C13.8607 20.5852 13.9056 20.631 13.9602 20.6627C14.0148 20.6944 14.0769 20.7107 14.14 20.71C14.2014 20.7089 14.2615 20.6918 14.3141 20.6602C14.3668 20.6286 14.4102 20.5837 14.44 20.53L16.75 16.53L13.57 15.49Z" fill="#F94060"/>
<path d="M15.63 17.28C15.63 17.28 16.9 19.5 17.5 20.53C17.5322 20.5838 17.5775 20.6286 17.6318 20.66C17.686 20.6915 17.7473 20.7087 17.81 20.71C17.8714 20.7089 17.9315 20.6918 17.9841 20.6602C18.0368 20.6286 18.0802 20.5837 18.11 20.53C18.26 20.29 18.43 20 18.56 19.78C18.6262 19.671 18.7184 19.5801 18.8283 19.5155C18.9383 19.4509 19.0626 19.4147 19.19 19.41H20.07C20.1314 19.4089 20.1915 19.3918 20.2441 19.3602C20.2968 19.3286 20.3402 19.2837 20.37 19.23C20.3998 19.1765 20.4154 19.1162 20.4154 19.055C20.4154 18.9937 20.3998 18.9335 20.37 18.88L18.37 15.49L15.63 17.28Z" fill="#F94060"/>
<path d="M18.51 14.79C18.512 15.2892 18.3656 15.7778 18.0895 16.1938C17.8133 16.6097 17.4199 16.9343 16.959 17.1262C16.4981 17.3182 15.9906 17.3689 15.5009 17.272C15.0111 17.1751 14.5612 16.9349 14.2081 16.5819C13.8551 16.2288 13.6149 15.7789 13.518 15.2891C13.4211 14.7994 13.4718 14.2919 13.6638 13.831C13.8557 13.3701 14.1803 12.9767 14.5962 12.7005C15.0122 12.4244 15.5008 12.278 16 12.28C16.6666 12.28 17.3061 12.5441 17.7784 13.0145C18.2507 13.485 18.5174 14.1234 18.52 14.79" fill="#F7BF75"/>
<path d="M17.89 14.79C17.89 15.1658 17.7786 15.5331 17.5698 15.8456C17.361 16.1581 17.0643 16.4016 16.7171 16.5454C16.3699 16.6892 15.9879 16.7268 15.6193 16.6535C15.2508 16.5802 14.9122 16.3992 14.6465 16.1335C14.3808 15.8678 14.1998 15.5292 14.1265 15.1607C14.0532 14.7921 14.0908 14.4101 14.2346 14.0629C14.3784 13.7157 14.622 13.419 14.9344 13.2102C15.2469 13.0014 15.6142 12.89 15.99 12.89C16.4939 12.89 16.9772 13.0902 17.3335 13.4465C17.6898 13.8028 17.89 14.2861 17.89 14.79" fill="#F1734D"/>
<path fill-rule="evenodd" clip-rule="evenodd" d="M16.47 14.29H15.52C15.3874 14.29 15.2602 14.3427 15.1664 14.4365C15.0727 14.5303 15.02 14.6574 15.02 14.79C15.02 14.9226 15.0727 15.0498 15.1664 15.1436C15.2602 15.2374 15.3874 15.29 15.52 15.29H16.47C16.6026 15.29 16.7298 15.2374 16.8235 15.1436C16.9173 15.0498 16.97 14.9226 16.97 14.79C16.9674 14.6582 16.9139 14.5325 16.8207 14.4393C16.7275 14.3461 16.6018 14.2926 16.47 14.29Z" fill="#FFEABB"/>
<path fill-rule="evenodd" clip-rule="evenodd" d="M10.62 6.13H13.38C13.5126 6.13 13.6398 6.07733 13.7335 5.98356C13.8273 5.88979 13.88 5.76261 13.88 5.63C13.8774 5.4982 13.8239 5.3725 13.7307 5.27928C13.6375 5.18606 13.5118 5.13256 13.38 5.13H10.62C10.4882 5.13256 10.3625 5.18606 10.2693 5.27928C10.1761 5.3725 10.1226 5.4982 10.12 5.63C10.12 5.76261 10.1727 5.88979 10.2664 5.98356C10.3602 6.07733 10.4874 6.13 10.62 6.13Z" fill="#F1734D"/>
<path fill-rule="evenodd" clip-rule="evenodd" d="M8.17999 8.06H15.82C15.9526 8.06 16.0798 8.00732 16.1735 7.91355C16.2673 7.81978 16.32 7.69261 16.32 7.56C16.32 7.42739 16.2673 7.30021 16.1735 7.20644C16.0798 7.11268 15.9526 7.06 15.82 7.06H8.17999C8.04738 7.06 7.92021 7.11268 7.82644 7.20644C7.73267 7.30021 7.67999 7.42739 7.67999 7.56C7.67999 7.69261 7.73267 7.81978 7.82644 7.91355C7.92021 8.00732 8.04738 8.06 8.17999 8.06Z" fill="#F1734D"/>
<path fill-rule="evenodd" clip-rule="evenodd" d="M8.17999 10H15.82C15.9526 10 16.0798 9.94732 16.1735 9.85355C16.2673 9.75979 16.32 9.63261 16.32 9.5C16.32 9.36739 16.2673 9.24021 16.1735 9.14645C16.0798 9.05268 15.9526 9 15.82 9H8.17999C8.04738 9 7.92021 9.05268 7.82644 9.14645C7.73267 9.24021 7.67999 9.36739 7.67999 9.5C7.67999 9.63261 7.73267 9.75979 7.82644 9.85355C7.92021 9.94732 8.04738 10 8.17999 10Z" fill="#F1734D"/>
</svg>
